<svg version="1.1" xmlns="http://www.w3.org/2000/svg" xmlns:xlink="http://www.w3.org/1999/xlink" x="0px" y="0px" viewBox="0 0 22 21" style="enable-background:new 0 0 22 21;" xml:space="preserve">
  <path fill="#000000" d="M22,7.9c-0.1-0.4-0.4-0.6-0.8-0.7l-6.4-0.9l-2.9-5.8c-0.3-0.7-1.5-0.7-1.8,0L7.2,6.3L0.9,7.2C0.5,7.3,0.2,7.6,0,7.9
    c-0.1,0.4,0,0.8,0.3,1l4.6,4.5l-1.1,6.4c-0.1,0.4,0.1,0.8,0.4,1C4.5,21,4.9,21,5.3,20.9l5.7-3l5.7,3c0.1,0.1,0.3,0.1,0.5,0.1
    c0.2,0,0.4-0.1,0.6-0.2c0.3-0.2,0.5-0.6,0.4-1l-1.1-6.4l4.6-4.5C22,8.7,22.1,8.3,22,7.9z M15.3,12.4c-0.2,0.2-0.3,0.6-0.3,0.9
    l0.8,4.9l-4.4-2.3c-0.3-0.2-0.6-0.2-0.9,0l-4.4,2.3L7,13.3c0.1-0.3-0.1-0.7-0.3-0.9L3.1,8.9l4.9-0.7c0.3,0,0.6-0.3,0.8-0.5L11,3.2
    l2.2,4.4c0.1,0.3,0.4,0.5,0.8,0.5l4.9,0.7L15.3,12.4z"/>
</svg>
